<svg xmlns="http://www.w3.org/2000/svg" viewBox="0 0 24 24" width="16px" height="16px">
    <path fill-rule="evenodd" clip-rule="evenodd" d="M5 3C6.30622 3 7.41746 3.83481 7.82929 5H10C12.2091 5 14 6.79086 14 9C14 11.2091 12.2091 13 10 13H7C5.34315 13 4 14.3431 4 16C4 17.6569 5.34315 19 7 19H13L15 21H7C4.23858 21 2 18.7614 2 16C2 13.2386 4.23858 11 7 11H10C11.1046 11 12 10.1046 12 9C12 7.89543 11.1046 7 10 7H7.82929C7.41746 8.16519 6.30622 9 5 9C3.34315 9 2 7.65685 2 6C2 4.34315 3.34315 3 5 3Z"></path><path fill-rule="evenodd" clip-rule="evenodd" d="M17.5608 20.9961H18.4484C18.7487 20.192 19.5015 19.5618 20.1257 19.0568C20.3933 18.8404 20.6413 18.6397 20.8273 18.4502C21.3871 17.8811 21.7684 17.1554 21.9229 16.3652C22.0775 15.5751 21.9984 14.7559 21.6956 14.0116C21.3928 13.2673 20.88 12.6313 20.2221 12.1841C19.5642 11.737 18.7908 11.4989 18 11.5C17.2092 11.4989 16.4358 11.737 15.7779 12.1841C15.12 12.6313 14.6072 13.2673 14.3044 14.0116C14.0016 14.7559 13.9225 15.5751 14.0771 16.3652C14.2316 17.1554 14.6129 17.8811 15.1727 18.4502C15.359 18.6412 15.6088 18.8435 15.8786 19.0619C16.5011 19.5658 17.2566 20.2524 17.5608 20.9961Z"></path>
</svg>