<?xml version="1.0" encoding="UTF-8"?>
<svg id="_Слой_1" data-name="Слой_1" xmlns="http://www.w3.org/2000/svg" version="1.1" viewBox="0 0 512 512">
  <!-- Generator: Adobe Illustrator 29.5.1, SVG Export Plug-In . SVG Version: 2.1.0 Build 141)  -->
  <path d="M337.12,171.08l-28.17-28.17h-18.47v34.98h46.64v-6.81ZM313.8,218.71c-9.66,0-17.49,7.83-17.49,17.49s7.83,17.49,17.49,17.49,17.49-7.83,17.49-17.49-7.83-17.49-17.49-17.49ZM173.68,475.77c-24,0-43.45-19.45-43.45-43.45v-54.79c0-24,19.45-43.45,43.45-43.45h261.96c2.93,0,5.78.29,8.54.84v-160.12c0-16.65-6.62-32.63-18.4-44.4l-107.2-107.2c-11.77-11.78-27.75-18.4-44.4-18.4h-144.01c-34.68,0-62.8,28.12-62.8,62.8v376.81c0,34.68,28.12,62.8,62.8,62.8h251.21c23.26,0,43.55-12.65,54.4-31.44-.05,0-.1,0-.15,0H173.68ZM226.35,154.58h-69.96c-3.21,0-5.83-2.62-5.83-5.83s2.62-5.83,5.83-5.83h81.62c3.21,0,5.83-2.62,5.83-5.83s-2.62-5.83-5.83-5.83h-93.28c-3.21,0-5.83-2.62-5.83-5.83s2.62-5.83,5.83-5.83h17.49v-17.49c0-9.66,7.83-17.49,17.49-17.49h93.28c9.66,0,17.49,7.83,17.49,17.49v17.49h18.47c6.19,0,12.13,2.44,16.51,6.81l28.17,28.17c4.37,4.37,6.81,10.31,6.81,16.51v41.8c6.45,0,11.66,5.21,11.66,11.66s-5.21,11.66-11.66,11.66h-11.66c0,19.31-15.67,34.98-34.98,34.98s-34.98-15.67-34.98-34.98h-46.64c0,19.31-15.67,34.98-34.98,34.98s-34.98-15.67-34.98-34.98v-46.64h52.47c3.21,0,5.83-2.62,5.83-5.83s-2.62-5.83-5.83-5.83h-69.96c-3.21,0-5.83-2.62-5.83-5.83s2.62-5.83,5.83-5.83h81.62c3.21,0,5.83-2.62,5.83-5.83s-2.62-5.83-5.83-5.83ZM197.2,218.71c-9.66,0-17.49,7.83-17.49,17.49s7.83,17.49,17.49,17.49,17.49-7.83,17.49-17.49-7.83-17.49-17.49-17.49ZM205.55,428.57c-1.43,2.29-3.25,4.02-5.48,5.21-2.23,1.19-4.9,1.79-8.03,1.79-3.67,0-6.7-.61-9.08-1.82-2.38-1.21-4.21-2.99-5.48-5.33-1.27-2.34-2.04-5.25-2.31-8.73h-17.52c.43,5.78,2.04,10.89,4.83,15.32,2.79,4.43,6.68,7.91,11.66,10.43s10.95,3.78,17.9,3.78c5.47,0,10.37-.96,14.71-2.87s8.03-4.64,11.07-8.17c3.05-3.54,5.37-7.82,6.97-12.86,1.6-5.04,2.4-10.7,2.4-16.99v-5.8c0-6.29-.82-11.95-2.46-16.99s-4-9.35-7.09-12.95c-3.09-3.59-6.81-6.34-11.16-8.23-4.36-1.89-9.23-2.84-14.62-2.84-7.11,0-13.11,1.29-17.99,3.87-4.88,2.58-8.68,6.12-11.4,10.63-2.72,4.51-4.35,9.68-4.89,15.5h17.52c.27-3.44.99-6.37,2.14-8.79,1.15-2.42,2.91-4.27,5.27-5.54,2.36-1.27,5.48-1.9,9.35-1.9,2.34,0,4.46.36,6.36,1.08,1.89.72,3.56,1.8,5.01,3.22,1.44,1.43,2.65,3.22,3.6,5.39.96,2.17,1.68,4.71,2.17,7.62.3,1.82.5,3.79.62,5.89h-26.84v13.77h26.84c-.15,2.83-.44,5.44-.92,7.79-.68,3.4-1.74,6.24-3.16,8.53ZM266.05,362.68h-4.34l-31.7,85.31h18.69l5.9-17.99h30.66l5.92,17.99h18.75l-31.88-85.31h-12.01ZM280.75,416.23h-21.62l10.79-32.9,10.82,32.9ZM397.95,362.68v85.31h17.58v-71.54h34.34v71.54h17.52v-85.31h-69.43ZM384.94,447.99v-85.31h-69.43v85.31h17.58v-71.54h34.34v71.54h17.52Z"/>
</svg>