<svg stroke="currentColor" fill="currentColor" stroke-width="0" viewBox="0 0 24 24" height="200px" width="200px" xmlns="http://www.w3.org/2000/svg">
  <!-- Определяем маску со скругленными углами -->
  <defs>
    <clipPath id="roundedCorner">
      <!-- Здесь rx="8" означает радиус скругления 8px. Можете изменить это число -->
      <rect x="0" y="0" width="24" height="24" rx="8" ry="8"/>
    </clipPath>
  </defs>

  <!-- Группируем все элементы и применяем к ним маску -->
  <g clip-path="url(#roundedCorner)">
    <path fill="none" d="M0 0h24v24H0z"></path>
    <path d="M20 17H4V5h8V3H4c-1.11 0-2 .89-2 2v12a2 2 0 0 0 2 2h4v2h8v-2h4c1.1 0 2-.9 2-2v-3h-2v3z"></path>
    <path d="m17 14 5-5-1.41-1.41L18 10.17V3h-2v7.17l-2.59-2.58L12 9z"></path>
  </g>
</svg>